<?xml version="1.0" standalone="no"?>
<!DOCTYPE svg PUBLIC "-//W3C//DTD SVG 20010904//EN"
 "http://www.w3.org/TR/2001/REC-SVG-20010904/DTD/svg10.dtd">
<svg version="1.0" xmlns="http://www.w3.org/2000/svg"
 width="1036.000000pt" height="1036.000000pt" viewBox="0 0 1036.000000 1036.000000"
 preserveAspectRatio="xMidYMid meet">
<metadata>
Created by potrace 1.14, written by Peter Selinger 2001-2017
</metadata>
<g transform="translate(0.000000,1036.000000) scale(0.100000,-0.100000)"
fill="#000000" stroke="none">
<path d="M3075 10317 c-27 -23 -103 -94 -170 -158 -230 -223 -254 -241 -256
-206 -1 13 -2 23 -13 107 -17 126 -23 150 -36 150 -8 0 -90 -130 -90 -144 0
-4 -5 -12 -11 -19 -8 -10 -158 -278 -250 -447 -23 -44 -40 -63 -47 -55 -2 2
-5 21 -7 44 -2 22 -6 48 -9 58 -3 10 -8 43 -11 73 -7 61 -11 81 -20 125 -4 17
-8 44 -10 62 -1 17 -6 36 -10 42 -15 26 -31 -3 -116 -215 -27 -69 -54 -134
-59 -143 -5 -9 -23 -54 -41 -101 -30 -81 -46 -118 -74 -185 -8 -16 -23 -55
-34 -85 -12 -30 -26 -64 -31 -75 -15 -31 -102 -249 -104 -260 -1 -5 -6 -17
-11 -25 -20 -31 -112 -286 -121 -333 -2 -17 -7 -33 -9 -37 -2 -3 -6 -17 -9
-31 -2 -13 -14 -67 -25 -119 -12 -52 -23 -111 -26 -130 -3 -19 -11 -71 -18
-115 -17 -108 -13 -252 12 -375 5 -25 10 -46 10 -47 1 -2 1 -4 2 -5 0 -2 3
-16 5 -33 7 -41 58 -216 87 -295 107 -291 271 -563 447 -739 116 -117 131
-131 228 -199 126 -89 253 -156 409 -215 113 -43 178 -62 186 -55 2 2 10 -2
18 -8 8 -7 34 -15 59 -19 43 -7 54 -9 103 -20 63 -14 146 -23 292 -30 220 -11
235 -13 288 -39 56 -27 140 -101 176 -153 54 -80 69 -208 36 -319 -17 -58 -60
-170 -95 -249 -10 -22 -23 -58 -30 -80 -7 -22 -16 -45 -21 -51 -5 -6 -6 -14
-2 -17 3 -4 1 -7 -5 -7 -7 0 -11 -3 -10 -7 2 -11 -13 -66 -22 -78 -4 -5 -11
-23 -15 -40 -12 -47 -13 -47 -34 -105 -34 -97 -119 -383 -137 -462 -9 -39 -12
-53 -14 -53 -2 0 -6 -17 -14 -55 -8 -34 -13 -54 -31 -130 -15 -60 -50 -222
-61 -280 -3 -14 -7 -33 -10 -43 -3 -10 -7 -32 -10 -50 -2 -18 -6 -43 -9 -57
-8 -38 -15 -72 -19 -100 -16 -96 -26 -157 -30 -190 -2 -14 -6 -38 -9 -55 -3
-16 -9 -55 -12 -85 -3 -30 -8 -62 -10 -70 -3 -8 -7 -44 -10 -80 -2 -36 -7 -76
-9 -90 -9 -52 -30 -277 -41 -450 -26 -383 -25 -1192 0 -1441 5 -51 13 -131 21
-209 3 -30 8 -73 11 -95 3 -22 7 -58 8 -80 2 -22 6 -60 9 -85 8 -64 15 -127
21 -185 8 -71 13 -113 20 -165 4 -25 8 -58 10 -75 3 -33 14 -116 20 -154 2
-13 8 -45 12 -70 9 -58 8 -52 16 -78 l8 -22 2775 0 c2594 0 2775 1 2780 17 3
9 10 26 14 37 19 44 32 142 34 250 1 44 5 85 9 92 4 6 3 14 -2 17 -5 4 -7 19
-5 34 9 46 10 133 2 138 -5 3 -4 13 0 22 11 24 4 592 -12 972 -11 255 -25 519
-41 795 -3 50 -7 133 -10 185 -3 52 -8 124 -10 160 -4 65 -11 178 -21 340 -2
47 -7 126 -10 175 -3 50 -7 119 -9 155 -5 96 -15 256 -20 330 -12 175 -19 411
-19 665 l0 280 38 115 c21 63 39 122 41 130 23 105 54 279 60 340 3 25 7 70
11 100 13 112 5 607 -10 659 -3 9 -8 43 -11 76 -3 33 -10 85 -15 115 -5 30
-12 75 -15 100 -4 24 -8 47 -10 50 -2 3 -6 22 -9 43 -6 38 -39 186 -53 235 -1
6 -5 18 -6 25 -2 6 -7 26 -12 42 -10 39 -54 192 -66 230 -6 17 -12 37 -14 45
-9 38 -103 292 -164 445 -93 231 -151 306 -253 326 -32 6 -59 10 -61 8 -7 -9
-67 63 -67 80 0 10 -3 21 -7 25 -4 3 -8 12 -9 19 -3 19 -51 179 -62 208 -14
35 -70 99 -87 99 -7 0 -15 5 -17 11 -2 7 -34 12 -83 14 -64 1 -81 5 -94 21
-40 49 -152 104 -192 96 -4 -1 -23 -3 -43 -5 -21 -3 -43 -13 -51 -23 -18 -24
-45 -80 -50 -102 -11 -57 -38 -132 -53 -145 -9 -8 -33 -17 -53 -21 -36 -6 -61
-26 -65 -50 -1 -6 -5 -24 -7 -41 -10 -53 -23 -205 -32 -355 -7 -110 -15 -395
-20 -730 -3 -162 -7 -304 -9 -315 -3 -11 -5 -26 -5 -33 -2 -31 -36 -21 -123
36 -200 129 -357 193 -483 196 -93 3 -128 -8 -170 -56 -39 -43 -52 -74 -50
-120 2 -48 13 -59 101 -108 40 -22 90 -52 111 -66 37 -25 167 -144 157 -144
-3 0 5 -10 17 -22 26 -29 96 -136 135 -208 16 -30 32 -57 35 -60 6 -5 83 -161
84 -170 3 -28 148 -277 174 -300 3 -3 12 -17 20 -32 8 -15 22 -37 33 -47 10
-11 18 -25 18 -31 0 -5 5 -10 10 -10 6 0 10 -5 10 -10 0 -6 26 -49 58 -98 163
-244 249 -434 258 -567 5 -80 10 -134 19 -185 3 -19 8 -53 10 -75 2 -22 4 -40
5 -40 2 0 7 -30 20 -120 12 -85 17 -117 24 -151 2 -12 7 -45 11 -75 4 -30 11
-76 16 -102 5 -26 8 -51 8 -55 -1 -4 0 -9 1 -12 3 -8 9 -42 15 -90 3 -25 10
-76 16 -115 9 -67 12 -84 24 -185 20 -159 27 -284 28 -500 0 -222 -4 -277 -28
-333 -29 -69 -31 -65 -124 208 -34 99 -64 187 -68 195 -3 8 -7 17 -8 20 -8 32
-122 356 -135 385 -5 11 -25 63 -44 115 -35 95 -166 429 -191 485 -7 17 -22
51 -34 77 -11 26 -21 54 -21 61 0 7 -4 17 -9 23 -5 5 -30 56 -54 114 -75 176
-294 631 -342 710 -14 24 -105 181 -129 225 -34 61 -175 266 -196 285 -3 3
-29 35 -58 73 -76 97 -148 210 -188 294 -33 70 -98 252 -108 303 -3 14 -9 40
-15 58 -5 18 -10 35 -10 37 0 3 -2 18 -5 33 -21 102 -30 347 -16 457 14 109
24 168 30 185 1 3 3 10 4 15 1 6 6 28 11 50 5 22 10 42 10 45 14 62 81 232
119 300 13 25 34 62 45 83 12 21 26 44 31 50 6 7 29 37 52 67 23 30 80 93 127
140 87 85 98 96 181 160 25 19 51 39 58 45 52 40 96 104 107 155 10 42 10 131
1 180 -11 56 -71 142 -125 180 -28 19 -50 38 -51 43 0 4 -6 7 -12 7 -17 1 -61
40 -83 73 -9 15 -19 46 -21 69 -7 85 -13 114 -29 145 -15 30 -63 73 -81 73
-16 0 -99 44 -112 59 -17 21 -31 55 -37 93 -11 63 -56 117 -125 153 -27 14
-36 16 -120 34 -68 14 -94 26 -127 60 -37 37 -52 91 -43 158 17 133 -10 189
-102 210 -39 9 -473 8 -538 -1 -25 -4 -59 -10 -76 -15 -18 -5 -74 -8 -125 -7
-82 1 -101 5 -148 29 -29 16 -58 33 -65 38 -55 46 -192 148 -246 184 -114 73
-315 163 -400 178 -3 0 -30 7 -60 14 -30 8 -68 16 -85 18 -16 2 -50 6 -75 10
-58 10 -207 10 -294 2 -54 -5 -66 -4 -59 6 39 48 152 206 162 225 7 12 9 26 6
31 -7 13 -66 -4 -144 -41 -35 -16 -72 -30 -83 -31 -10 -1 -18 -4 -18 -7 0 -6
-5 -8 -182 -84 -147 -62 -137 -66 -145 64 -6 113 -15 121 -78 67z"/>
</g>
</svg>
