<svg width="749" height="1036" viewBox="0 0 749 1036" fill="none" xmlns="http://www.w3.org/2000/svg">
<path d="M144.41 22.2C131.32 34.92 121.84 43.47 121.57 42.82C121.2 42.26 120.18 35.67 119.25 28.05C117.86 17 117.3 14.4 116.09 14.4C115.16 14.4 108.2 26.19 95.66 49.32C85.17 68.45 76.53 83.59 76.44 82.94C76.25 82.29 74.95 73.38 73.38 63.16C69.85 40.04 69.76 39.48 68.37 39.48C67.72 39.48 64.28 46.91 60.57 55.92C52.58 76.07 29.09 133.55 27.42 137.45C26.77 138.94 24.91 143.76 23.24 148.13C21.57 152.5 19.9 156.39 19.53 156.95C18.14 158.81 12.19 175.71 10.34 182.95C6.81001 196.97 1.80001 222.88 0.960009 231.15C-2.65999 268.48 18.51 328.75 48.13 365.52C72.46 395.7 109.23 417.34 150.93 426.07C165.79 429.23 176.28 430.34 193.65 430.9C201.54 431.18 209.16 431.64 210.55 431.92C219.46 434.06 231.35 443.9 235.81 452.81C241.57 464.32 240.64 476.86 232.56 495.62C202.84 565.27 181.3 656.36 173.31 746.16C168.39 801.41 167.74 876.26 171.92 918.42C176.66 966.71 183.99 1026.98 185.85 1032.83L186.87 1035.89H741.81L743.85 1031.15C746.91 1023.91 747.66 1014.62 748.21 974.32C748.86 927.98 747 873.01 741.99 789.34C740.97 772.44 738.93 737.99 737.44 712.73C735.86 687.47 734.1 658.22 733.54 647.73C732.89 637.24 732.33 615.69 732.33 599.91L732.24 571.12L735.68 560.91C748.96 521.54 752.02 473.99 744.78 420.87C739.77 384.75 728.44 342.96 712.74 303.68C702.43 277.59 699.37 271.74 693.8 266.81C689.62 263.19 688.04 262.45 683.59 261.89C677.55 261.15 674.12 259.38 672.08 255.95C671.34 254.65 669.39 248.52 667.72 242.39C663.73 227.25 661.22 222.24 655.83 218.52C651.84 215.73 650.82 215.46 644.32 215.46H637.17L632.81 211C627.89 206.17 622.13 203.85 614.89 203.85C606.53 203.85 604.58 206.26 600.31 221.49C599.01 226.32 597.34 230.87 596.69 231.52C596.13 232.17 593.81 232.91 591.58 233.1C584.89 233.75 584.06 235.51 582.39 253.07C580.16 274.99 579.23 297.64 578.68 340.73C578.03 395.15 579.05 391.62 566.42 383.26C557.6 377.41 555.09 375.92 546.08 371.47C531.69 364.32 525.09 362.37 514.97 362.28C506.24 362.28 503.27 363.49 498.35 369.24C494.64 373.6 493.43 378.06 494.64 382.98C495.38 386.04 496.22 386.69 504.48 390.97C515.34 396.54 520.82 400.63 528.62 408.89C538.83 419.75 549.33 437.4 560.84 463.12C563.07 468.13 567.53 476.03 570.87 480.76C581.55 496.18 597.71 520.78 601.98 528.4C611.27 544.65 616.65 559.23 616.65 567.87C616.65 574 617.95 584.03 623.61 619.87C634.47 689.05 636.52 707.25 636.52 737.81C636.61 755.83 636.33 760.93 634.94 766.88C633.27 773.94 631.5 776.26 629.55 774.31C629.09 773.85 624.16 759.92 618.59 743.29C584.2 640.76 542.23 545.76 509.54 496.82C506.48 492.18 500.16 483.63 495.42 477.78C476.94 454.75 469.7 440.54 462.55 413.7C456.79 392.16 455.59 375.16 458.28 353.34C463.94 307.56 482.05 274.59 516.32 248.13C529.51 237.92 531.36 236.06 533.87 230.76C535.91 226.4 536.28 224.35 536.28 216.83C536.28 209.22 535.91 207.36 533.87 202.9C530.43 195.75 527.28 192.41 518.27 186.37C507.68 179.22 506.76 177.83 506.11 167.8C505.37 156.01 502.12 151.18 492.92 148.02C484.66 145.23 482.43 142.82 480.57 134.55C479.18 128.24 478.53 126.94 474.63 123.13C470.27 118.77 465.16 116.54 456.06 115.14C443.52 113.1 437.21 105.58 438.79 94.34C440.65 81.43 439.44 77.35 432.94 73.54C426.9 70.01 386.04 69.92 369.7 73.45C360.14 75.49 347.78 75.49 343.61 73.54C337.02 70.38 331.54 66.76 325.32 61.47C312.13 50.23 293 39.28 278.15 34.35C258.65 27.94 237.57 25.25 220.48 27.11C215.37 27.67 211.1 27.95 211.01 27.85C210.82 27.66 211.38 26.74 212.22 25.81C214.82 23.02 226.71 6.67999 228.1 3.88999C229.31 1.65999 229.31 1.28999 227.91 0.729992C226.15 0.0799919 219.27 2.39999 211.57 6.20999C208.69 7.59999 205.72 8.80999 205.07 8.80999C204.33 8.80999 202.93 9.36999 201.91 10.11C200.89 10.85 196.52 12.9 192.25 14.66C187.89 16.52 181.66 19.02 178.51 20.42C175.26 21.81 172.47 22.74 172.29 22.56C172.1 22.37 171.64 17.36 171.27 11.32C170.62 1.10999 170.53 0.459991 168.67 0.459991C167.34 0.469991 158.89 8.08999 144.41 22.2V22.2Z" fill="black"/>
</svg>
